<svg xmlns="http://www.w3.org/2000/svg" width="338" height="63" viewBox="0 0 338 63">
  <metadata><?xpacket begin="﻿" id="W5M0MpCehiHzreSzNTczkc9d"?>
<x:xmpmeta xmlns:x="adobe:ns:meta/" x:xmptk="Adobe XMP Core 5.6-c142 79.160924, 2017/07/13-01:06:39        ">
   <rdf:RDF xmlns:rdf="http://www.w3.org/1999/02/22-rdf-syntax-ns#">
      <rdf:Description rdf:about=""/>
   </rdf:RDF>
</x:xmpmeta>
                                                                                                    
                                                                                                    
                                                                                                    
                                                                                                    
                                                                                                    
                                                                                                    
                                                                                                    
                                                                                                    
                                                                                                    
                                                                                                    
                                                                                                    
                                                                                                    
                                                                                                    
                                                                                                    
                                                                                                    
                                                                                                    
                                                                                                    
                                                                                                    
                                                                                                    
                                                                                                    
                           
<?xpacket end="w"?></metadata>
<defs>
    <style>
      .cls-1 {
        fill: #6f747e;
        fill-rule: evenodd;
      }
    </style>
  </defs>
  <path id="Rounded_Rectangle_1_copy" data-name="Rounded Rectangle 1 copy" class="cls-1" d="M823.5,354a5.5,5.5,0,0,1,5.5,5.5v42a5.5,5.5,0,0,1-11,0v-42A5.5,5.5,0,0,1,823.5,354Zm28-10a5.5,5.5,0,0,1,5.5,5.5v52a5.5,5.5,0,0,1-11,0v-52A5.5,5.5,0,0,1,851.5,344Zm27,11a5.5,5.5,0,0,1,5.5,5.5v41a5.5,5.5,0,0,1-11,0v-41A5.5,5.5,0,0,1,878.5,355Zm163,0a5.5,5.5,0,0,1,5.5,5.5v41a5.5,5.5,0,0,1-11,0v-41A5.5,5.5,0,0,1,1041.5,355Zm-136,21a5.5,5.5,0,0,1,5.5,5.5v20a5.5,5.5,0,0,1-11,0v-20A5.5,5.5,0,0,1,905.5,376Zm218,0a5.5,5.5,0,0,1,5.5,5.5v20a5.5,5.5,0,0,1-11,0v-20A5.5,5.5,0,0,1,1123.5,376Zm-28-21a5.5,5.5,0,0,1,5.5,5.5v41a5.5,5.5,0,0,1-11,0v-41A5.5,5.5,0,0,1,1095.5,355Zm-27-11a5.5,5.5,0,0,1,5.5,5.5v52a5.5,5.5,0,0,1-11,0v-52A5.5,5.5,0,0,1,1068.5,344Zm-272,32a5.5,5.5,0,0,1,5.5,5.5v20a5.5,5.5,0,0,1-11,0v-20A5.5,5.5,0,0,1,796.5,376Zm136-21a5.5,5.5,0,0,1,5.5,5.5v41a5.5,5.5,0,0,1-11,0v-41A5.5,5.5,0,0,1,932.5,355Zm82,21a5.5,5.5,0,0,1,5.5,5.5v20a5.5,5.5,0,0,1-11,0v-20A5.5,5.5,0,0,1,1014.5,376Zm-28-21a5.5,5.5,0,0,1,5.5,5.5v41a5.5,5.5,0,0,1-11,0v-41A5.5,5.5,0,0,1,986.5,355Zm-27-11a5.5,5.5,0,0,1,5.5,5.5v52a5.5,5.5,0,0,1-11,0v-52A5.5,5.5,0,0,1,959.5,344Z" transform="translate(-791 -344)"/>
</svg>
